<svg id="visual" viewBox="0 0 2650 1440" width="2650" height="1440" xmlns="http://www.w3.org/2000/svg" xmlns:xlink="http://www.w3.org/1999/xlink" version="1.1"><rect x="0" y="0" width="2650" height="1440" fill="#000000"></rect><path d="M0 1065L442 1133L883 1009L1325 870L1767 1076L2208 1043L2650 926L2650 1441L2208 1441L1767 1441L1325 1441L883 1441L442 1441L0 1441Z" fill="#b90a0a"></path><path d="M0 1130L442 1077L883 1154L1325 923L1767 967L2208 916L2650 1112L2650 1441L2208 1441L1767 1441L1325 1441L883 1441L442 1441L0 1441Z" fill="#a51711"></path><path d="M0 1099L442 1236L883 1188L1325 1119L1767 1187L2208 1161L2650 1115L2650 1441L2208 1441L1767 1441L1325 1441L883 1441L442 1441L0 1441Z" fill="#911e16"></path><path d="M0 1137L442 1073L883 1197L1325 1211L1767 1141L2208 1198L2650 1239L2650 1441L2208 1441L1767 1441L1325 1441L883 1441L442 1441L0 1441Z" fill="#7e221a"></path><path d="M0 1257L442 1143L883 1206L1325 1241L1767 1236L2208 1191L2650 1149L2650 1441L2208 1441L1767 1441L1325 1441L883 1441L442 1441L0 1441Z" fill="#6a241c"></path><path d="M0 1209L442 1311L883 1295L1325 1207L1767 1193L2208 1269L2650 1321L2650 1441L2208 1441L1767 1441L1325 1441L883 1441L442 1441L0 1441Z" fill="#57241e"></path><path d="M0 1332L442 1253L883 1301L1325 1278L1767 1338L2208 1320L2650 1331L2650 1441L2208 1441L1767 1441L1325 1441L883 1441L442 1441L0 1441Z" fill="#43241f"></path><path d="M0 1348L442 1357L883 1330L1325 1310L1767 1315L2208 1344L2650 1341L2650 1441L2208 1441L1767 1441L1325 1441L883 1441L442 1441L0 1441Z" fill="#2f2220"></path></svg>